<?xml version="1.0" standalone="no"?>
<!DOCTYPE svg PUBLIC "-//W3C//DTD SVG 20010904//EN"
 "http://www.w3.org/TR/2001/REC-SVG-20010904/DTD/svg10.dtd">
<svg version="1.0" xmlns="http://www.w3.org/2000/svg"
 width="512.000000pt" height="512.000000pt" viewBox="0 0 512.000000 512.000000"
 preserveAspectRatio="xMidYMid meet">

<g transform="translate(0.000000,512.000000) scale(0.100000,-0.100000)"
fill="#000000" stroke="none">
<path d="M2041 4897 c-7 -9 -12 -86 -13 -212 l-3 -198 -60 -17 c-186 -53 -421
-163 -587 -274 l-97 -65 -40 44 c-23 25 -41 51 -41 59 0 8 11 28 25 44 43 51
35 70 -75 176 -64 61 -108 96 -122 96 -30 0 -488 -456 -488 -485 0 -26 0 -26
107 -128 58 -55 99 -87 113 -87 12 0 35 11 52 25 39 33 52 32 99 -12 l39 -38
-61 -75 c-137 -167 -265 -391 -343 -603 -298 -801 -88 -1696 536 -2293 315
-301 696 -491 1143 -571 141 -25 529 -25 665 0 148 27 291 65 403 106 958 356
1539 1327 1392 2328 -88 599 -432 1137 -945 1481 -161 107 -403 220 -585 272
l-60 17 -3 198 c-1 126 -6 203 -13 212 -9 10 -110 13 -519 13 -409 0 -510 -3
-519 -13z m469 -996 c0 -148 7 -171 50 -171 43 0 50 23 50 172 l0 141 94 -6
c79 -5 244 -32 254 -42 1 -1 -13 -61 -32 -133 -30 -113 -32 -133 -20 -143 23
-19 32 -3 68 129 18 68 36 125 39 129 12 11 284 -94 316 -123 2 -1 -27 -56
-63 -122 -36 -66 -66 -129 -66 -140 0 -26 35 -51 61 -45 12 3 44 50 85 122 36
64 69 120 74 125 14 14 270 -179 270 -204 0 -5 -40 -52 -90 -103 -49 -52 -90
-102 -90 -111 0 -37 42 -11 131 81 l93 96 57 -61 c31 -34 80 -96 109 -138 42
-60 50 -78 39 -85 -166 -97 -234 -147 -237 -171 -3 -26 20 -58 42 -58 8 0 65
32 129 70 63 39 120 70 126 70 22 0 139 -285 128 -312 -2 -7 -62 -28 -132 -47
-122 -33 -151 -49 -128 -72 9 -9 114 14 265 57 10 3 19 -2 22 -13 9 -28 34
-192 40 -260 l6 -63 -140 0 c-127 0 -142 -2 -160 -20 -23 -23 -25 -39 -7 -63
10 -14 35 -17 157 -19 l145 -3 -3 -65 c-3 -75 -19 -198 -33 -252 l-9 -36 -128
34 c-152 41 -165 42 -160 13 3 -19 21 -27 128 -56 69 -18 131 -35 137 -38 15
-5 -41 -174 -88 -267 l-30 -59 -32 19 c-102 62 -217 122 -235 122 -27 0 -44
-23 -40 -56 3 -23 21 -37 123 -95 66 -38 124 -70 129 -72 19 -7 -189 -287
-213 -287 -4 0 -52 45 -105 101 -54 55 -103 98 -109 96 -30 -10 -12 -42 80
-137 l98 -103 -55 -48 c-76 -67 -208 -161 -220 -157 -6 2 -41 57 -78 122 -38
66 -76 124 -85 130 -26 16 -67 -8 -67 -40 0 -23 53 -128 122 -242 l20 -32 -76
-35 c-41 -19 -114 -48 -161 -64 l-86 -31 -9 25 c-5 13 -21 68 -36 122 -30 112
-39 133 -58 133 -26 0 -23 -25 14 -158 l37 -132 -36 -9 c-63 -17 -145 -29
-234 -37 l-87 -7 0 150 c0 160 -4 173 -50 173 -46 0 -50 -13 -50 -173 l0 -150
-87 7 c-89 8 -171 20 -234 37 l-36 9 37 132 c37 133 40 158 14 158 -19 0 -28
-21 -59 -135 -15 -55 -31 -110 -36 -122 l-8 -23 -86 31 c-47 16 -120 45 -161
64 l-76 35 20 32 c77 130 122 219 122 242 0 32 -41 56 -67 40 -9 -6 -47 -64
-85 -130 -37 -65 -72 -120 -78 -122 -12 -4 -144 90 -220 157 l-55 48 98 103
c91 96 110 127 80 137 -6 2 -57 -42 -113 -99 l-100 -103 -50 55 c-53 58 -155
196 -164 220 -4 11 30 35 119 84 97 54 127 75 132 94 7 31 -7 56 -35 60 -19 3
-123 -49 -239 -120 l-32 -19 -27 52 c-33 66 -91 216 -96 248 -3 23 3 26 132
61 117 32 135 40 138 58 5 30 -8 29 -160 -12 l-128 -34 -9 36 c-15 61 -30 172
-33 247 l-3 70 150 3 c127 2 152 5 163 19 17 24 15 40 -8 63 -18 18 -33 20
-165 20 l-146 0 6 63 c7 71 33 233 41 260 3 11 12 16 22 13 151 -43 256 -66
265 -57 22 22 -6 39 -124 71 -68 18 -128 36 -133 41 -6 5 -4 25 3 51 22 76
103 259 117 265 7 2 65 -27 130 -66 64 -39 122 -71 130 -71 22 0 45 32 42 58
-3 24 -71 74 -237 171 -11 7 -3 25 39 85 29 42 78 103 109 137 l56 61 94 -96
c90 -91 131 -116 131 -80 0 9 -40 59 -90 111 -49 51 -90 98 -90 103 0 19 239
210 263 210 3 0 37 -56 76 -124 44 -76 79 -126 90 -129 26 -7 61 19 61 45 0
11 -30 74 -66 140 -36 66 -65 121 -63 122 32 29 304 134 316 123 3 -4 21 -61
39 -129 36 -132 45 -148 68 -129 12 10 10 29 -20 139 -18 70 -34 130 -34 133
0 14 191 46 288 48 l62 1 0 -139z"/>
<path d="M2012 3333 c-48 -41 -45 -48 158 -403 106 -184 200 -349 210 -365 12
-19 16 -36 10 -44 -6 -11 -33 -7 -143 23 -74 20 -140 36 -145 36 -16 0 -42
-30 -42 -48 0 -35 21 -46 156 -82 l139 -37 7 -42 c15 -89 86 -154 182 -167 47
-7 48 -8 93 -86 28 -49 55 -83 69 -88 44 -17 103 20 104 64 0 10 -21 57 -46
104 -39 71 -44 86 -33 97 12 11 94 -8 494 -115 264 -71 488 -130 497 -130 10
0 25 11 34 25 36 55 31 57 -501 199 l-488 131 -12 47 c-23 91 -84 145 -176
155 l-54 6 -200 351 c-110 193 -208 358 -217 368 -23 23 -70 23 -96 1z"/>
</g>
</svg>
